<?xml version="1.0" standalone="no"?>
<!DOCTYPE svg PUBLIC "-//W3C//DTD SVG 20010904//EN"
 "http://www.w3.org/TR/2001/REC-SVG-20010904/DTD/svg10.dtd">
<svg version="1.0" xmlns="http://www.w3.org/2000/svg"
 width="260.000000pt" height="260.000000pt" viewBox="0 0 260.000000 260.000000"
 preserveAspectRatio="xMidYMid meet">
<metadata>
Created by potrace 1.11, written by Peter Selinger 2001-2013
</metadata>
<g transform="translate(0.000000,260.000000) scale(0.100000,-0.100000)"
fill="#000000" stroke="none">
<path d="M1535 2409 c-129 -35 -230 -94 -328 -191 -84 -84 -90 -88 -140 -93
-28 -3 -63 -7 -77 -10 -14 -3 -36 -7 -50 -10 -52 -10 -156 -48 -219 -80 -291
-148 -519 -451 -566 -755 -4 -25 -9 -54 -12 -65 -6 -30 -5 -246 1 -282 3 -18
8 -48 11 -65 17 -101 82 -256 143 -339 114 -154 292 -282 452 -324 107 -29
179 -38 290 -38 212 0 427 60 620 173 272 159 550 460 673 730 26 59 83 213
85 233 0 4 3 20 6 35 25 114 28 142 30 267 4 271 -73 477 -239 641 -77 75
-156 124 -260 160 -70 24 -97 28 -215 30 -105 1 -151 -3 -205 -17z m224 -240
c182 -59 315 -226 366 -459 20 -93 13 -337 -13 -455 -44 -197 -118 -357 -241
-520 -48 -63 -207 -225 -221 -225 -5 0 -15 -6 -23 -14 -8 -8 -48 -32 -89 -54
-289 -154 -630 -111 -847 106 -156 157 -232 354 -233 607 -1 172 29 303 99
445 66 131 180 247 303 308 47 23 100 44 117 48 l33 6 -29 -78 c-39 -109 -55
-202 -55 -319 1 -167 40 -220 200 -265 61 -18 65 -18 59 -2 -55 135 -68 189
-70 297 -4 222 128 446 318 540 102 50 233 64 326 34z"/>
</g>
</svg>
